<svg id="visual" viewBox="0 0 900 600" width="900" height="600" xmlns="http://www.w3.org/2000/svg" xmlns:xlink="http://www.w3.org/1999/xlink" version="1.1"><rect x="0" y="0" width="900" height="600" fill="#e8f7ef"></rect><path d="M0 492L16.7 492.3C33.3 492.7 66.7 493.3 100 494C133.3 494.7 166.7 495.3 200 502.8C233.3 510.3 266.7 524.7 300 521.5C333.3 518.3 366.7 497.7 400 492C433.3 486.3 466.7 495.7 500 502.7C533.3 509.7 566.7 514.3 600 519.2C633.3 524 666.7 529 700 533C733.3 537 766.7 540 800 531.2C833.3 522.3 866.7 501.7 883.3 491.3L900 481L900 0L883.3 0C866.7 0 833.3 0 800 0C766.7 0 733.3 0 700 0C666.7 0 633.3 0 600 0C566.7 0 533.3 0 500 0C466.7 0 433.3 0 400 0C366.7 0 333.3 0 300 0C266.7 0 233.3 0 200 0C166.7 0 133.3 0 100 0C66.7 0 33.3 0 16.7 0L0 0Z" fill="#e8f7ef"></path><path d="M0 443L16.7 448.5C33.3 454 66.7 465 100 471.3C133.3 477.7 166.7 479.3 200 478C233.3 476.7 266.7 472.3 300 464C333.3 455.7 366.7 443.3 400 436.5C433.3 429.7 466.7 428.3 500 425.5C533.3 422.7 566.7 418.3 600 419.7C633.3 421 666.7 428 700 437.8C733.3 447.7 766.7 460.3 800 465.5C833.3 470.7 866.7 468.3 883.3 467.2L900 466L900 0L883.3 0C866.7 0 833.3 0 800 0C766.7 0 733.3 0 700 0C666.7 0 633.3 0 600 0C566.7 0 533.3 0 500 0C466.7 0 433.3 0 400 0C366.7 0 333.3 0 300 0C266.7 0 233.3 0 200 0C166.7 0 133.3 0 100 0C66.7 0 33.3 0 16.7 0L0 0Z" fill="#e2f3ea"></path><path d="M0 398L16.7 397.3C33.3 396.7 66.7 395.3 100 401.8C133.3 408.3 166.7 422.7 200 418.5C233.3 414.3 266.7 391.7 300 390.3C333.3 389 366.7 409 400 411.2C433.3 413.3 466.7 397.7 500 385.8C533.3 374 566.7 366 600 362.7C633.3 359.3 666.7 360.7 700 373.5C733.3 386.3 766.7 410.7 800 418.8C833.3 427 866.7 419 883.3 415L900 411L900 0L883.3 0C866.7 0 833.3 0 800 0C766.7 0 733.3 0 700 0C666.7 0 633.3 0 600 0C566.7 0 533.3 0 500 0C466.7 0 433.3 0 400 0C366.7 0 333.3 0 300 0C266.7 0 233.3 0 200 0C166.7 0 133.3 0 100 0C66.7 0 33.3 0 16.7 0L0 0Z" fill="#dbefe5"></path><path d="M0 358L16.7 359C33.3 360 66.7 362 100 366C133.3 370 166.7 376 200 374C233.3 372 266.7 362 300 355.7C333.3 349.3 366.7 346.7 400 347C433.3 347.3 466.7 350.7 500 354C533.3 357.3 566.7 360.7 600 357C633.3 353.3 666.7 342.7 700 346.8C733.3 351 766.7 370 800 374.2C833.3 378.3 866.7 367.7 883.3 362.3L900 357L900 0L883.3 0C866.7 0 833.3 0 800 0C766.7 0 733.3 0 700 0C666.7 0 633.3 0 600 0C566.7 0 533.3 0 500 0C466.7 0 433.3 0 400 0C366.7 0 333.3 0 300 0C266.7 0 233.3 0 200 0C166.7 0 133.3 0 100 0C66.7 0 33.3 0 16.7 0L0 0Z" fill="#d5ece0"></path><path d="M0 260L16.7 260.5C33.3 261 66.7 262 100 274.2C133.3 286.3 166.7 309.7 200 315.5C233.3 321.3 266.7 309.7 300 298.8C333.3 288 366.7 278 400 274.3C433.3 270.7 466.7 273.3 500 275.7C533.3 278 566.7 280 600 285C633.3 290 666.7 298 700 301.3C733.3 304.7 766.7 303.3 800 302.8C833.3 302.3 866.7 302.7 883.3 302.8L900 303L900 0L883.3 0C866.7 0 833.3 0 800 0C766.7 0 733.3 0 700 0C666.7 0 633.3 0 600 0C566.7 0 533.3 0 500 0C466.7 0 433.3 0 400 0C366.7 0 333.3 0 300 0C266.7 0 233.3 0 200 0C166.7 0 133.3 0 100 0C66.7 0 33.3 0 16.7 0L0 0Z" fill="#cfe8db"></path><path d="M0 225L16.7 234.5C33.3 244 66.7 263 100 270.5C133.3 278 166.7 274 200 274.2C233.3 274.3 266.7 278.7 300 269.3C333.3 260 366.7 237 400 226.3C433.3 215.7 466.7 217.3 500 219C533.3 220.7 566.7 222.3 600 222.8C633.3 223.3 666.7 222.7 700 228.7C733.3 234.7 766.7 247.3 800 255.2C833.3 263 866.7 266 883.3 267.5L900 269L900 0L883.3 0C866.7 0 833.3 0 800 0C766.7 0 733.3 0 700 0C666.7 0 633.3 0 600 0C566.7 0 533.3 0 500 0C466.7 0 433.3 0 400 0C366.7 0 333.3 0 300 0C266.7 0 233.3 0 200 0C166.7 0 133.3 0 100 0C66.7 0 33.3 0 16.7 0L0 0Z" fill="#c9e4d6"></path><path d="M0 231L16.7 229.8C33.3 228.7 66.7 226.3 100 219C133.3 211.7 166.7 199.3 200 195.2C233.3 191 266.7 195 300 202C333.3 209 366.7 219 400 213.5C433.3 208 466.7 187 500 179.5C533.3 172 566.7 178 600 179C633.3 180 666.7 176 700 178.2C733.3 180.3 766.7 188.7 800 196.7C833.3 204.7 866.7 212.3 883.3 216.2L900 220L900 0L883.3 0C866.7 0 833.3 0 800 0C766.7 0 733.3 0 700 0C666.7 0 633.3 0 600 0C566.7 0 533.3 0 500 0C466.7 0 433.3 0 400 0C366.7 0 333.3 0 300 0C266.7 0 233.3 0 200 0C166.7 0 133.3 0 100 0C66.7 0 33.3 0 16.7 0L0 0Z" fill="#c3e1d1"></path><path d="M0 129L16.7 128.8C33.3 128.7 66.7 128.3 100 131.5C133.3 134.7 166.7 141.3 200 149.3C233.3 157.3 266.7 166.7 300 171C333.3 175.3 366.7 174.7 400 173C433.3 171.3 466.7 168.7 500 159.7C533.3 150.7 566.7 135.3 600 128C633.3 120.7 666.7 121.3 700 123.2C733.3 125 766.7 128 800 137.2C833.3 146.3 866.7 161.7 883.3 169.3L900 177L900 0L883.3 0C866.7 0 833.3 0 800 0C766.7 0 733.3 0 700 0C666.7 0 633.3 0 600 0C566.7 0 533.3 0 500 0C466.7 0 433.3 0 400 0C366.7 0 333.3 0 300 0C266.7 0 233.3 0 200 0C166.7 0 133.3 0 100 0C66.7 0 33.3 0 16.7 0L0 0Z" fill="#bdddcc"></path><path d="M0 132L16.7 123.7C33.3 115.3 66.7 98.7 100 98.3C133.3 98 166.7 114 200 121.3C233.3 128.7 266.7 127.3 300 123.5C333.3 119.7 366.7 113.3 400 110.8C433.3 108.3 466.7 109.7 500 112.8C533.3 116 566.7 121 600 118.2C633.3 115.3 666.7 104.7 700 99.8C733.3 95 766.7 96 800 96.5C833.3 97 866.7 97 883.3 97L900 97L900 0L883.3 0C866.7 0 833.3 0 800 0C766.7 0 733.3 0 700 0C666.7 0 633.3 0 600 0C566.7 0 533.3 0 500 0C466.7 0 433.3 0 400 0C366.7 0 333.3 0 300 0C266.7 0 233.3 0 200 0C166.7 0 133.3 0 100 0C66.7 0 33.3 0 16.7 0L0 0Z" fill="#b7dac7"></path><path d="M0 27L16.7 29C33.3 31 66.7 35 100 43.5C133.3 52 166.7 65 200 68.2C233.3 71.3 266.7 64.7 300 59.2C333.3 53.7 366.7 49.3 400 45C433.3 40.7 466.7 36.3 500 33.3C533.3 30.3 566.7 28.7 600 29.3C633.3 30 666.7 33 700 38C733.3 43 766.7 50 800 51.5C833.3 53 866.7 49 883.3 47L900 45L900 0L883.3 0C866.7 0 833.3 0 800 0C766.7 0 733.3 0 700 0C666.7 0 633.3 0 600 0C566.7 0 533.3 0 500 0C466.7 0 433.3 0 400 0C366.7 0 333.3 0 300 0C266.7 0 233.3 0 200 0C166.7 0 133.3 0 100 0C66.7 0 33.3 0 16.7 0L0 0Z" fill="#b1d6c2"></path></svg>