<svg xmlns="http://www.w3.org/2000/svg" xmlns:xlink="http://www.w3.org/1999/xlink" width="500" zoomAndPan="magnify" viewBox="0 0 375 374.999991" height="500" preserveAspectRatio="xMidYMid meet" version="1.0"><defs><clipPath id="6403d84b81"><path d="M 26.25 183 L 348.75 183 L 348.75 345 L 26.25 345 Z M 26.25 183 " clip-rule="nonzero"/></clipPath></defs><path stroke-linecap="butt" transform="matrix(0.75, 0, 0, 0.75, 127.499996, 185.999988)" fill="none" stroke-linejoin="miter" d="M 0.00000516333 2.000016 L 160.000016 2.000016 " stroke="#000000" stroke-width="4" stroke-opacity="1" stroke-miterlimit="4"/><path fill="#f9f9f9" d="M 263.179688 2.554688 L 71.304688 2.554688 C 58.621094 2.554688 48.34375 12.832031 48.34375 25.515625 L 48.34375 349.484375 C 48.34375 362.167969 58.621094 372.445312 71.304688 372.445312 L 303.695312 372.445312 C 316.378906 372.445312 326.65625 362.167969 326.65625 349.484375 L 326.65625 66.035156 Z M 263.179688 2.554688 " fill-opacity="1" fill-rule="nonzero"/><path fill="#aaaaaa" d="M 226.433594 81.558594 L 96.382812 81.558594 C 90.539062 81.558594 85.800781 86.296875 85.800781 92.140625 C 85.800781 97.984375 90.539062 102.722656 96.382812 102.722656 L 226.433594 102.722656 C 232.277344 102.722656 237.015625 97.984375 237.015625 92.140625 C 237.015625 86.296875 232.277344 81.558594 226.433594 81.558594 Z M 226.433594 81.558594 " fill-opacity="1" fill-rule="nonzero"/><path fill="#aaaaaa" d="M 289.199219 128.476562 C 289.199219 134.320312 284.460938 139.058594 278.617188 139.058594 L 96.382812 139.058594 C 90.539062 139.058594 85.800781 134.320312 85.800781 128.476562 C 85.800781 122.632812 90.539062 117.894531 96.382812 117.894531 L 278.617188 117.894531 C 284.460938 117.894531 289.199219 122.632812 289.199219 128.476562 Z M 289.199219 128.476562 " fill-opacity="1" fill-rule="nonzero"/><path fill="#d1d1d1" d="M 286.140625 66.035156 L 326.65625 66.035156 L 263.179688 2.554688 L 263.179688 43.074219 C 263.179688 55.753906 273.457031 66.035156 286.140625 66.035156 Z M 286.140625 66.035156 " fill-opacity="1" fill-rule="nonzero"/><path fill="#aaaaaa" d="M 327.699219 63.484375 C 327.503906 63.265625 327.339844 63.097656 327.339844 63.097656 L 265.734375 1.496094 C 265.734375 1.496094 265.710938 1.46875 265.660156 1.425781 C 265.324219 1.136719 263.796875 -0.00390625 260.621094 -0.00390625 L 71.304688 -0.00390625 C 57.234375 -0.00390625 45.785156 11.445312 45.785156 25.515625 L 45.785156 349.484375 C 45.785156 363.558594 57.230469 375.003906 71.304688 375.003906 L 303.695312 375.003906 C 317.769531 375.003906 329.214844 363.558594 329.214844 349.484375 L 329.214844 68.589844 C 329.214844 65.207031 327.757812 63.550781 327.699219 63.484375 Z M 265.734375 8.730469 L 320.480469 63.476562 L 286.140625 63.476562 C 274.890625 63.476562 265.734375 54.324219 265.734375 43.074219 Z M 324.097656 349.484375 C 324.097656 360.734375 314.945312 369.886719 303.695312 369.886719 L 71.304688 369.886719 C 60.054688 369.886719 50.902344 360.734375 50.902344 349.484375 L 50.902344 25.515625 C 50.902344 14.265625 60.054688 5.113281 71.304688 5.113281 L 260.621094 5.113281 L 260.621094 43.074219 C 260.621094 57.144531 272.066406 68.589844 286.140625 68.589844 L 324.097656 68.589844 Z M 324.097656 349.484375 " fill-opacity="1" fill-rule="nonzero"/><g clip-path="url(#6403d84b81)"><path fill="#e52420" d="M 348.59375 322.355469 C 348.59375 334.589844 338.675781 344.503906 326.445312 344.503906 L 48.554688 344.503906 C 36.320312 344.503906 26.40625 334.589844 26.40625 322.355469 L 26.40625 205.5625 C 26.40625 193.328125 36.320312 183.410156 48.554688 183.410156 L 326.445312 183.410156 C 338.675781 183.410156 348.59375 193.328125 348.59375 205.5625 Z M 348.59375 322.355469 " fill-opacity="1" fill-rule="nonzero"/></g><path fill="#ffffff" d="M 294.105469 268.519531 C 294.105469 270.367188 292.59375 271.878906 290.746094 271.878906 L 267.730469 271.878906 C 265.886719 271.878906 264.375 273.390625 264.375 275.234375 L 264.375 301.207031 C 264.375 303.054688 262.863281 304.5625 261.019531 304.5625 L 248.878906 304.5625 C 247.03125 304.5625 245.523438 303.054688 245.523438 301.207031 L 245.523438 226.710938 C 245.523438 224.863281 247.03125 223.355469 248.878906 223.355469 L 296.4375 223.355469 C 298.28125 223.355469 299.792969 224.863281 299.792969 226.710938 L 299.792969 234.5 C 299.792969 236.34375 298.28125 237.855469 296.4375 237.855469 L 267.730469 237.855469 C 265.882812 237.855469 264.375 239.367188 264.375 241.210938 L 264.375 254.019531 C 264.375 255.867188 265.882812 257.378906 267.730469 257.378906 L 290.746094 257.378906 C 292.59375 257.378906 294.101562 258.886719 294.101562 260.734375 L 294.101562 268.519531 Z M 294.105469 268.519531 " fill-opacity="1" fill-rule="nonzero"/><path fill="#ffffff" d="M 213.183594 232.695312 C 206.75 226.46875 198.757812 223.355469 189.199219 223.355469 L 162.828125 223.355469 C 160.980469 223.355469 159.472656 224.863281 159.472656 226.710938 L 159.472656 301.207031 C 159.472656 303.054688 160.980469 304.5625 162.828125 304.5625 L 189.199219 304.5625 C 198.757812 304.5625 206.75 301.460938 213.183594 295.25 C 219.617188 289.039062 222.832031 281.042969 222.832031 271.265625 L 222.832031 256.652344 C 222.832031 246.910156 219.617188 238.925781 213.183594 232.695312 Z M 205.082031 272.777344 C 205.082031 278.570312 203.636719 283.292969 200.742188 286.945312 C 197.84375 290.597656 194.160156 292.425781 189.691406 292.425781 L 181.707031 292.425781 C 179.863281 292.425781 178.351562 290.914062 178.351562 289.066406 L 178.351562 268.496094 C 178.351562 266.652344 178.34375 265.140625 178.335938 265.140625 C 178.328125 265.140625 178.324219 263.628906 178.324219 261.78125 L 178.324219 241.210938 C 178.324219 239.363281 179.832031 237.851562 181.679688 237.851562 L 185.84375 237.851562 C 185.855469 237.851562 185.867188 237.851562 185.875 237.851562 L 189.691406 237.851562 C 194.160156 237.851562 197.84375 239.679688 200.742188 243.335938 C 203.636719 246.988281 205.082031 251.671875 205.082031 257.382812 Z M 205.082031 272.777344 " fill-opacity="1" fill-rule="nonzero"/><path fill="#ffffff" d="M 129.140625 230.714844 C 123.488281 225.808594 115.847656 223.355469 106.214844 223.355469 L 78.5625 223.355469 C 76.714844 223.355469 75.203125 224.863281 75.203125 226.710938 L 75.203125 301.207031 C 75.203125 303.054688 76.714844 304.5625 78.5625 304.5625 L 90.75 304.5625 C 90.75 304.5625 90.753906 304.5625 90.753906 304.5625 L 90.871094 304.5625 L 90.871094 304.550781 C 92.660156 304.488281 94.105469 303.011719 94.105469 301.207031 L 94.074219 280.101562 C 94.074219 278.257812 95.585938 276.746094 97.429688 276.746094 L 106.21875 276.730469 C 115.847656 276.730469 123.488281 274.285156 129.140625 269.398438 C 134.792969 264.507812 137.617188 258.066406 137.617188 250.070312 C 137.617188 242.078125 134.792969 235.625 129.140625 230.714844 Z M 115.664062 258.832031 C 113.492188 261.09375 110.355469 262.222656 106.246094 262.222656 L 103.414062 262.222656 C 103.3125 262.222656 103.214844 262.226562 103.121094 262.226562 L 103.121094 262.230469 L 97.414062 262.230469 C 97.175781 262.230469 96.941406 262.203125 96.714844 262.152344 C 95.183594 261.84375 94.023438 260.484375 94.023438 258.863281 L 94.023438 241.078125 C 94.023438 239.234375 95.535156 237.722656 97.378906 237.722656 L 97.5 237.722656 C 97.5 237.722656 97.503906 237.722656 97.507812 237.722656 L 106.246094 237.722656 C 110.394531 237.722656 113.542969 238.882812 115.691406 241.199219 C 117.839844 243.515625 118.914062 246.488281 118.914062 250.113281 C 118.914062 253.664062 117.828125 256.570312 115.664062 258.832031 Z M 115.664062 258.832031 " fill-opacity="1" fill-rule="nonzero"/></svg>